# xmcd
#
# Track frame offsets:
#	150
#	12475
#	22980
#	35060
#	47922
#	58812
#	78290
#	92247
#	104950
#	119655
#	131205
#	145805
#	155900
#	170040
#
# Disc length: 2387 seconds
#
# Revision: 0
# Processed by: cddbd v1.5.2PL0 Copyright (c) Steve Scherf et al.
# Submitted via: EasyCDDAExtractor 2010.4.0.0
#
DISCID=d609510e
DTITLE=Belton Richard - I'm Back
DYEAR=1996
DGENRE=Cajun
TTITLE0=Tell me you don't love me anymore
TTITLE1=The grinder's broken
TTITLE2=I'll quit making a fool of myself
TTITLE3=I'd like to know
TTITLE4=Hey you
TTITLE5=Where will I find another you
TTITLE6=Oh yea yi yi
TTITLE7=Adalida
TTITLE8=You'll never me mine
TTITLE9=The north side door
TTITLE10=Dream of me
TTITLE11=Lil Liza Jane
TTITLE12=She's gone, gone
TTITLE13=I'm back
EXTD=
EXTT0=
EXTT1=
EXTT2=
EXTT3=
EXTT4=
EXTT5=
EXTT6=
EXTT7=
EXTT8=
EXTT9=
EXTT10=
EXTT11=
EXTT12=
EXTT13=
PLAYORDER=
